<?xml version="1.0" encoding="UTF-8"?><svg id="Layer_1" xmlns="http://www.w3.org/2000/svg" viewBox="0 0 349 349"><defs><style>.cls-1{fill:#0075ff;stroke-width:0px;}</style></defs><path class="cls-1" d="m120.24,142.33c.22,41.06.33,62.6.33,62.6,0,0,18.68,10.81,53.83,31.15,35.64-20.83,54.34-31.75,54.34-31.75,0,0,.02-21.5.06-61.97-35.79-20.41-54.57-31.12-54.57-31.12,0,0-18.73,10.79-53.99,31.1Z"/><path class="cls-1" d="m174.5,0C78.13,0,0,78.13,0,174.5s78.13,174.5,174.5,174.5,174.5-78.13,174.5-174.5S270.87,0,174.5,0Zm122.83,243.93s-21,12.62-53.68,32.25c-23.01-13.28-46.01-26.56-69.02-39.85-23.08,13.33-46.17,26.65-69.25,39.98-34.87-20.75-53.41-31.78-53.41-31.78,0,0-.43-24.49-1.09-62.61,23.04-13.3,46.08-26.6,69.12-39.91V62.39c35.41-19.82,54.23-30.36,54.23-30.36,0,0,21.43,11.88,54.77,30.36v79.47c23.05,13.31,46.1,26.62,69.15,39.92-.54,40.57-.82,62.14-.82,62.14Z"/><path class="cls-1" d="m120.24,142.33c0-.15,0-.3,0-.46-.08.04-.16.09-.23.13v.46c.08-.05.16-.09.24-.14Z"/><path class="cls-1" d="m228.8,142.35c.07.04.13.08.2.12v-.61c-.07-.04-.14-.08-.2-.12,0,.21,0,.4,0,.61Z"/><path class="cls-1" d="m174.4,236.08s-.07.04-.1.06c.11.06.22.13.33.19.03-.02.07-.04.1-.06-.11-.07-.22-.13-.33-.19Z"/></svg>